# xmcd
#
# Track frame offsets:
#	150
#	11817
#	23467
#	36335
#	50662
#	65657
#	79605
#	90715
#	101575
#	116292
#
# Disc length: 1767 seconds
#
# Revision: 1
# Processed by: cddbd v1.4PL0 Copyright (c) Steve Scherf et al.
# Submitted via: CDmax 2.0
#
DISCID=7706e50a
DTITLE=Variés - Les Grandes Chansons Du Country Pop (Vol 3)
DYEAR=1995
DGENRE=Country
TTITLE0=Ray Fontaine - Aiko Aiko
TTITLE1=Lynda Dénommée - Quand le soleil dit bonjour aux montagnes
TTITLE2=Sylvie Beauchemin - Une rose pour maman
TTITLE3=Ray Fontaine - J'ai le blues des filles
TTITLE4=Lynda Dénommée - Laisse-moi vivre ma vie
TTITLE5=Lynda Dénommée - Aide-moi à l'oublier
TTITLE6=Sylvie Beauchemin - Personne au monde
TTITLE7=Ray Fontaine - J'chu tanné d'travailler dans l'bois
TTITLE8=Sylvie Beauchemin - Un verre sur la table
TTITLE9=Colette Dénommée - Crying my heart over you
EXTD=
EXTT0=
EXTT1=
EXTT2=
EXTT3=
EXTT4=
EXTT5=
EXTT6=
EXTT7=
EXTT8=
EXTT9=
PLAYORDER=
